<svg xmlns="http://www.w3.org/2000/svg" viewBox="0 0 512 512" fill="none">
  <defs>
    <linearGradient id="g" x1="256" y1="60" x2="256" y2="460" gradientUnits="userSpaceOnUse">
      <stop offset="0" stop-color="#5ab9d4"/>
      <stop offset="0.5" stop-color="#9b3fc4"/>
      <stop offset="1" stop-color="#f0456f"/>
    </linearGradient>
  </defs>
  <g stroke="url(#g)" stroke-width="14" stroke-linecap="round" stroke-linejoin="round">
    <path d="M196 78 L120 110 L40 175 L92 235 L128 205 L128 440 L384 440 L384 205 L420 235 L472 175 L392 110 L316 78"/>
    <path d="M196 78 C206 118 306 118 316 78"/>
    <circle cx="256" cy="300" r="92"/>
    <circle cx="256" cy="300" r="30"/>
    <path d="M256 208 L232 232 M256 208 L280 232 M348 286 L318 296 M340 350 L300 340 M164 286 L194 296 M172 350 L212 340 M232 372 L244 338 M280 372 L268 338"/>
  </g>
</svg>
